<?xml version="1.0" encoding="UTF-8"?><svg xmlns="http://www.w3.org/2000/svg" xmlns:xlink="http://www.w3.org/1999/xlink" fill-opacity="1" color-rendering="auto" color-interpolation="auto" text-rendering="auto" stroke="black" stroke-linecap="square" width="726" stroke-miterlimit="10" shape-rendering="auto" stroke-opacity="1" fill="black" stroke-dasharray="none" font-weight="normal" stroke-width="1" height="428" font-family="'Dialog'" font-style="normal" stroke-linejoin="miter" font-size="12px" stroke-dashoffset="0" image-rendering="auto">
  <!--Generated by ySVG 2.5-->
  <defs id="genericDefs"/>
  <g>
    <defs id="defs1">
      <clipPath clipPathUnits="userSpaceOnUse" id="clipPath1">
        <path d="M0 0 L726 0 L726 428 L0 428 L0 0 Z"/>
      </clipPath>
      <clipPath clipPathUnits="userSpaceOnUse" id="clipPath2">
        <path d="M353 112 L1079 112 L1079 540 L353 540 L353 112 Z"/>
      </clipPath>
    </defs>
    <g fill="white" text-rendering="geometricPrecision" shape-rendering="geometricPrecision" transform="translate(-353,-112)" stroke="white">
      <rect x="353" width="726" height="428" y="112" clip-path="url(#clipPath2)" stroke="none"/>
    </g>
    <g fill="rgb(221,221,221)" text-rendering="geometricPrecision" shape-rendering="geometricPrecision" transform="matrix(1,0,0,1,-353,-112)" stroke="rgb(221,221,221)">
      <rect x="599.5714" width="479" height="80" y="369" clip-path="url(#clipPath2)" stroke="none"/>
    </g>
    <g text-rendering="geometricPrecision" stroke-miterlimit="1.45" shape-rendering="geometricPrecision" font-family="sans-serif" transform="matrix(1,0,0,1,-353,-112)" stroke-linecap="butt">
      <text x="605.5714" xml:space="preserve" y="399.4023" clip-path="url(#clipPath2)" stroke="none">[1] Courcoubetis, Costas, Moshe Vardi, Pierre Wolper, and Mihalis Yannakakis. </text>
      <text x="605.5714" xml:space="preserve" y="413.5352" clip-path="url(#clipPath2)" stroke="none">"Memory-efficient algorithms for the verification of temporal properties." </text>
      <text x="605.5714" xml:space="preserve" y="427.668" clip-path="url(#clipPath2)" stroke="none">Formal methods in system design 1, no. 2 (1992): 275-288.</text>
    </g>
    <g fill="rgb(153,204,255)" text-rendering="geometricPrecision" shape-rendering="geometricPrecision" transform="matrix(1,0,0,1,-353,-112)" stroke="rgb(153,204,255)">
      <rect x="353" width="123" height="48" y="491.8333" clip-path="url(#clipPath2)" stroke="none"/>
    </g>
    <g stroke-linecap="butt" transform="matrix(1,0,0,1,-353,-112)" text-rendering="geometricPrecision" font-family="sans-serif" shape-rendering="geometricPrecision" font-weight="bold" stroke-miterlimit="1.45">
      <text x="359" xml:space="preserve" y="520.3685" clip-path="url(#clipPath2)" stroke="none">nbfs_naive</text>
    </g>
    <g fill="rgb(221,221,221)" text-rendering="geometricPrecision" shape-rendering="geometricPrecision" transform="matrix(1,0,0,1,-353,-112)" stroke="rgb(221,221,221)">
      <rect x="599.5714" width="479" height="80" y="237.8333" clip-path="url(#clipPath2)" stroke="none"/>
    </g>
    <g text-rendering="geometricPrecision" stroke-miterlimit="1.45" shape-rendering="geometricPrecision" font-family="sans-serif" transform="matrix(1,0,0,1,-353,-112)" stroke-linecap="butt">
      <text x="605.5714" xml:space="preserve" y="268.2357" clip-path="url(#clipPath2)" stroke="none">[3] Gaiser, Andreas, and Stefan Schwoon. </text>
      <text x="605.5714" xml:space="preserve" y="282.3685" clip-path="url(#clipPath2)" stroke="none">"Comparison of algorithms for checking emptiness on Büchi automata." </text>
      <text x="605.5714" xml:space="preserve" y="296.5013" clip-path="url(#clipPath2)" stroke="none">arXiv preprint arXiv:0910.3766 (2009).</text>
    </g>
    <g fill="rgb(221,221,221)" text-rendering="geometricPrecision" shape-rendering="geometricPrecision" transform="matrix(1,0,0,1,-353,-112)" stroke="rgb(221,221,221)">
      <rect x="599.5714" width="479" height="74" y="112.6667" clip-path="url(#clipPath2)" stroke="none"/>
    </g>
    <g text-rendering="geometricPrecision" stroke-miterlimit="1.45" shape-rendering="geometricPrecision" font-family="sans-serif" transform="matrix(1,0,0,1,-353,-112)" stroke-linecap="butt">
      <text x="605.5714" xml:space="preserve" y="133.0026" clip-path="url(#clipPath2)" stroke="none">[2] Couvreur, Jean-Michel, Alexandre Duret-Lutz, and Denis Poitrenaud. </text>
      <text x="605.5714" xml:space="preserve" y="147.1354" clip-path="url(#clipPath2)" stroke="none">"On-the-fly emptiness checks for generalized Büchi automata." </text>
      <text x="605.5714" xml:space="preserve" y="161.2682" clip-path="url(#clipPath2)" stroke="none">In International SPIN Workshop on Model Checking of Software, </text>
      <text x="605.5714" xml:space="preserve" y="175.401" clip-path="url(#clipPath2)" stroke="none">pp. 169-184. Springer, Berlin, Heidelberg, 2005.</text>
    </g>
    <g fill="rgb(153,204,255)" text-rendering="geometricPrecision" shape-rendering="geometricPrecision" transform="matrix(1,0,0,1,-353,-112)" stroke="rgb(153,204,255)">
      <rect x="353" width="123" height="47" y="126.1667" clip-path="url(#clipPath2)" stroke="none"/>
    </g>
    <g stroke-linecap="butt" transform="matrix(1,0,0,1,-353,-112)" text-rendering="geometricPrecision" font-family="sans-serif" shape-rendering="geometricPrecision" font-weight="bold" stroke-miterlimit="1.45">
      <text x="359" xml:space="preserve" y="147.1354" clip-path="url(#clipPath2)" stroke="none">ndfs_gs09_cdlp05</text>
      <text x="359" xml:space="preserve" y="161.2682" clip-path="url(#clipPath2)" stroke="none">[2,3]</text>
    </g>
    <g fill="rgb(153,204,255)" text-rendering="geometricPrecision" shape-rendering="geometricPrecision" transform="matrix(1,0,0,1,-353,-112)" stroke="rgb(153,204,255)">
      <rect x="353" width="123" height="48" y="385" clip-path="url(#clipPath2)" stroke="none"/>
    </g>
    <g stroke-linecap="butt" transform="matrix(1,0,0,1,-353,-112)" text-rendering="geometricPrecision" font-family="sans-serif" shape-rendering="geometricPrecision" font-weight="bold" stroke-miterlimit="1.45">
      <text x="359" xml:space="preserve" y="406.4688" clip-path="url(#clipPath2)" stroke="none">ndfs_cvwy92_alg2</text>
      <text x="359" xml:space="preserve" y="420.6016" clip-path="url(#clipPath2)" stroke="none">[1]</text>
    </g>
    <g fill="rgb(153,204,255)" text-rendering="geometricPrecision" shape-rendering="geometricPrecision" transform="matrix(1,0,0,1,-353,-112)" stroke="rgb(153,204,255)">
      <rect x="377" width="75" height="48" y="255.0833" clip-path="url(#clipPath2)" stroke="none"/>
    </g>
    <g stroke-linecap="butt" transform="matrix(1,0,0,1,-353,-112)" text-rendering="geometricPrecision" font-family="sans-serif" shape-rendering="geometricPrecision" font-weight="bold" stroke-miterlimit="1.45">
      <text x="383" xml:space="preserve" y="276.5521" clip-path="url(#clipPath2)" stroke="none">ndfs_gs09</text>
      <text x="383" xml:space="preserve" y="290.6849" clip-path="url(#clipPath2)" stroke="none">[3]</text>
      <path fill="none" d="M476 149.6667 L591.5714 149.6667" clip-path="url(#clipPath2)"/>
      <path d="M599.5714 149.6667 L587.5714 144.6667 L590.5714 149.6667 L587.5714 154.6667 Z" stroke="none" clip-path="url(#clipPath2)"/>
      <path fill="none" d="M476 166.6121 L726.7643 235.7066" clip-path="url(#clipPath2)"/>
      <path d="M734.4769 237.8317 L724.2362 229.8237 L725.8003 235.441 L721.5799 239.4644 Z" stroke="none" clip-path="url(#clipPath2)"/>
      <path fill="none" d="M476 409 L591.5714 409" clip-path="url(#clipPath2)"/>
      <path d="M599.5714 409 L587.5714 404 L590.5714 409 L587.5714 414 Z" stroke="none" clip-path="url(#clipPath2)"/>
    </g>
    <g stroke-linecap="butt" transform="matrix(1,0,0,1,-353,-112)" fill="red" text-rendering="geometricPrecision" shape-rendering="geometricPrecision" stroke="red" stroke-width="6" stroke-miterlimit="1.45">
      <path fill="none" d="M414.5 433 L414.5 478.8333" clip-path="url(#clipPath2)"/>
      <path d="M414.5 491.8333 L422.625 472.3333 L414.5 477.2083 L406.375 472.3333 Z" clip-path="url(#clipPath2)" stroke="none"/>
    </g>
    <g text-rendering="geometricPrecision" stroke-miterlimit="1.45" shape-rendering="geometricPrecision" font-family="sans-serif" transform="matrix(1,0,0,1,-353,-112)" stroke-linecap="butt">
      <text x="412.54" xml:space="preserve" y="466.9518" clip-path="url(#clipPath2)" stroke="none">betterThan</text>
    </g>
    <g stroke-linecap="butt" transform="matrix(1,0,0,1,-353,-112)" fill="red" text-rendering="geometricPrecision" shape-rendering="geometricPrecision" stroke="red" stroke-width="6" stroke-miterlimit="1.45">
      <path fill="none" d="M414.5 173.1667 L414.5 242.0833" clip-path="url(#clipPath2)"/>
      <path d="M414.5 255.0833 L422.625 235.5833 L414.5 240.4583 L406.375 235.5833 Z" clip-path="url(#clipPath2)" stroke="none"/>
    </g>
    <g text-rendering="geometricPrecision" stroke-miterlimit="1.45" shape-rendering="geometricPrecision" font-family="sans-serif" transform="matrix(1,0,0,1,-353,-112)" stroke-linecap="butt">
      <text x="412.54" xml:space="preserve" y="218.6602" clip-path="url(#clipPath2)" stroke="none">betterThan</text>
      <path fill="none" d="M452 278.9729 L591.5715 278.562" clip-path="url(#clipPath2)"/>
      <path d="M599.5714 278.5385 L587.5568 273.5738 L590.5715 278.565 L587.5862 283.5738 Z" clip-path="url(#clipPath2)" stroke="none"/>
    </g>
    <g stroke-linecap="butt" transform="matrix(1,0,0,1,-353,-112)" fill="red" text-rendering="geometricPrecision" shape-rendering="geometricPrecision" stroke="red" stroke-width="6" stroke-miterlimit="1.45">
      <path fill="none" d="M414.5 303.0833 L414.5 372" clip-path="url(#clipPath2)"/>
      <path d="M414.5 385 L422.625 365.5 L414.5 370.375 L406.375 365.5 Z" clip-path="url(#clipPath2)" stroke="none"/>
    </g>
    <g text-rendering="geometricPrecision" stroke-miterlimit="1.45" shape-rendering="geometricPrecision" font-family="sans-serif" transform="matrix(1,0,0,1,-353,-112)" stroke-linecap="butt">
      <text x="412.54" xml:space="preserve" y="348.5768" clip-path="url(#clipPath2)" stroke="none">betterThan</text>
    </g>
  </g>
</svg>
