<?xml version="1.0" encoding="UTF-8"?><svg xmlns="http://www.w3.org/2000/svg" xmlns:xlink="http://www.w3.org/1999/xlink" fill-opacity="1" color-rendering="auto" color-interpolation="auto" text-rendering="auto" stroke="black" stroke-linecap="square" width="478" stroke-miterlimit="10" shape-rendering="auto" stroke-opacity="1" fill="black" stroke-dasharray="none" font-weight="normal" stroke-width="1" height="372" font-family="'Dialog'" font-style="normal" stroke-linejoin="miter" font-size="12px" stroke-dashoffset="0" image-rendering="auto">
  <!--Generated by ySVG 2.5-->
  <defs id="genericDefs"/>
  <g>
    <defs id="defs1">
      <clipPath clipPathUnits="userSpaceOnUse" id="clipPath1">
        <path d="M0 0 L478 0 L478 372 L0 372 L0 0 Z"/>
      </clipPath>
      <clipPath clipPathUnits="userSpaceOnUse" id="clipPath2">
        <path d="M964 291 L1442 291 L1442 663 L964 663 L964 291 Z"/>
      </clipPath>
    </defs>
    <g fill="white" text-rendering="geometricPrecision" shape-rendering="geometricPrecision" transform="translate(-964,-291)" stroke="white">
      <rect x="964" width="478" height="372" y="291" clip-path="url(#clipPath2)" stroke="none"/>
    </g>
    <g fill="white" text-rendering="geometricPrecision" shape-rendering="geometricPrecision" transform="matrix(1,0,0,1,-964,-291)" stroke="white">
      <ellipse rx="30" ry="29" clip-path="url(#clipPath2)" cx="994.1978" cy="363.3525" stroke="none"/>
    </g>
    <g text-rendering="geometricPrecision" stroke-miterlimit="1.45" shape-rendering="geometricPrecision" transform="matrix(1,0,0,1,-964,-291)" stroke-linecap="butt">
      <ellipse rx="30" fill="none" ry="29" clip-path="url(#clipPath2)" cx="994.1978" cy="363.3525"/>
      <text x="970.6959" font-size="18px" y="370.1552" clip-path="url(#clipPath2)" font-family="sans-serif" stroke="none" xml:space="preserve">white</text>
    </g>
    <g fill="aqua" text-rendering="geometricPrecision" shape-rendering="geometricPrecision" transform="matrix(1,0,0,1,-964,-291)" stroke="aqua">
      <ellipse rx="30" ry="29" clip-path="url(#clipPath2)" cx="994.1978" cy="458" stroke="none"/>
    </g>
    <g font-size="18px" stroke-linecap="butt" transform="matrix(1,0,0,1,-964,-291)" text-rendering="geometricPrecision" font-family="sans-serif" shape-rendering="geometricPrecision" stroke-miterlimit="1.45">
      <text x="974.3301" xml:space="preserve" y="464.8027" clip-path="url(#clipPath2)" stroke="none">cyan</text>
    </g>
    <g fill="blue" text-rendering="geometricPrecision" shape-rendering="geometricPrecision" transform="matrix(1,0,0,1,-964,-291)" stroke="blue">
      <ellipse rx="30" ry="29" clip-path="url(#clipPath2)" cx="1060.1978" cy="546" stroke="none"/>
    </g>
    <g stroke-linecap="butt" font-size="18px" transform="matrix(1,0,0,1,-964,-291)" fill="white" text-rendering="geometricPrecision" font-family="sans-serif" shape-rendering="geometricPrecision" stroke="white" stroke-miterlimit="1.45">
      <text x="1041.3322" xml:space="preserve" y="552.8027" clip-path="url(#clipPath2)" stroke="none">blue</text>
    </g>
    <g fill="red" text-rendering="geometricPrecision" shape-rendering="geometricPrecision" transform="matrix(1,0,0,1,-964,-291)" stroke="red">
      <ellipse rx="30" ry="29" clip-path="url(#clipPath2)" cx="994.1978" cy="634" stroke="none"/>
    </g>
    <g stroke-linecap="butt" font-size="18px" transform="matrix(1,0,0,1,-964,-291)" fill="white" text-rendering="geometricPrecision" font-family="sans-serif" shape-rendering="geometricPrecision" stroke="white" stroke-miterlimit="1.45">
      <text x="979.8365" xml:space="preserve" y="640.8027" clip-path="url(#clipPath2)" stroke="none">red</text>
    </g>
    <g text-rendering="geometricPrecision" shape-rendering="geometricPrecision" transform="matrix(1,0,0,1,-964,-291)">
      <circle r="6.232" clip-path="url(#clipPath2)" cx="994.1978" cy="298.1205" stroke="none"/>
      <circle stroke-linecap="butt" clip-path="url(#clipPath2)" fill="none" r="6.232" cx="994.1978" cy="298.1205" stroke-miterlimit="1.45"/>
    </g>
    <g font-size="18px" stroke-linecap="butt" transform="matrix(1,0,0,1,-964,-291)" text-rendering="geometricPrecision" font-family="sans-serif" shape-rendering="geometricPrecision" font-style="italic" stroke-miterlimit="1.45">
      <text x="1126.1979" xml:space="preserve" y="370.1552" clip-path="url(#clipPath2)" stroke="none">unknown configurations</text>
      <text x="1126.1979" xml:space="preserve" y="464.8027" clip-path="url(#clipPath2)" stroke="none">on the blue stack</text>
      <text x="1126.1979" xml:space="preserve" y="559.4503" clip-path="url(#clipPath2)" stroke="none">popped from the blue stack</text>
      <text x="1126.1979" xml:space="preserve" y="640.8027" clip-path="url(#clipPath2)" stroke="none">cannot be part of a counterexample</text>
      <path fill="none" d="M994.1978 392.3525 L994.1978 421" clip-path="url(#clipPath2)"/>
      <path d="M994.1978 429 L999.1978 417 L994.1978 420 L989.1978 417 Z" stroke="none" clip-path="url(#clipPath2)"/>
      <path fill="none" d="M1011.8068 481.4787 L1037.7888 516.1213" clip-path="url(#clipPath2)"/>
      <path d="M1042.5887 522.5213 L1039.3889 509.9213 L1037.1888 515.3212 L1031.3888 515.9212 Z" stroke="none" clip-path="url(#clipPath2)"/>
      <path fill="none" d="M994.1978 487 L994.1978 597" clip-path="url(#clipPath2)"/>
      <path d="M994.1978 605 L999.1978 593 L994.1978 596 L989.1978 593 Z" stroke="none" clip-path="url(#clipPath2)"/>
      <path fill="none" d="M1042.5887 569.4787 L1016.6069 604.1213" clip-path="url(#clipPath2)"/>
      <path d="M1011.8068 610.5212 L1023.0068 603.9213 L1017.2068 603.3212 L1015.0068 597.9213 Z" stroke="none" clip-path="url(#clipPath2)"/>
      <path fill="none" d="M994.1978 304.3525 L994.1978 326.3525" clip-path="url(#clipPath2)"/>
      <path d="M994.1978 334.3525 L999.1978 322.3525 L994.1978 325.3525 L989.1978 322.3525 Z" stroke="none" clip-path="url(#clipPath2)"/>
    </g>
  </g>
</svg>
